<svg xmlns="http://www.w3.org/2000/svg" viewBox="0 0 64 64" width="96" height="96">
 <rect width="64" height="64" fill="#142a20" />
 <g transform="translate(-10 -6) translate(0 0) scale(0.75) translate(0 0)">
  <g>
   <circle cx="20" cy="36" r="20" fill="#1c3a2b" />
   <circle cx="44" cy="26" r="24" fill="#23473a" />
   <circle cx="64" cy="38" r="18" fill="#1c3a2b" />
   <circle cx="40" cy="18" r="10" fill="#2f5a44" />
   <circle cx="58" cy="30" r="7" fill="#2f5a44" />
   <circle cx="16" cy="30" r="7" fill="#2f5a44" />
   <path d="M2 40 Q20 58 40 50 Q62 58 80 42" fill="none" stroke="#0e1d16" stroke-width="3" />
  </g>
 </g>
 <g transform="translate(20 18) translate(0 0) scale(0.75) translate(0 0)">
  <g>
   <circle cx="20" cy="36" r="20" fill="#1c3a2b" />
   <circle cx="44" cy="26" r="24" fill="#23473a" />
   <circle cx="64" cy="38" r="18" fill="#1c3a2b" />
   <circle cx="40" cy="18" r="10" fill="#2f5a44" />
   <circle cx="58" cy="30" r="7" fill="#2f5a44" />
   <circle cx="16" cy="30" r="7" fill="#2f5a44" />
   <path d="M2 40 Q20 58 40 50 Q62 58 80 42" fill="none" stroke="#0e1d16" stroke-width="3" />
  </g>
 </g>
 <g transform="translate(-18 30) translate(0 0) scale(0.7) translate(0 0)">
  <g>
   <circle cx="20" cy="36" r="20" fill="#1c3a2b" />
   <circle cx="44" cy="26" r="24" fill="#23473a" />
   <circle cx="64" cy="38" r="18" fill="#1c3a2b" />
   <circle cx="40" cy="18" r="10" fill="#2f5a44" />
   <circle cx="58" cy="30" r="7" fill="#2f5a44" />
   <circle cx="16" cy="30" r="7" fill="#2f5a44" />
   <path d="M2 40 Q20 58 40 50 Q62 58 80 42" fill="none" stroke="#0e1d16" stroke-width="3" />
  </g>
 </g>
</svg>
